<svg xmlns="http://www.w3.org/2000/svg" width="22" height="20" viewBox="0 0 22 20"><path d="M8.5,13H2V12H6a.5.5,0,0,0,0-1H2V9.707L3.707,8H18.293l.853.854a.5.5,0,0,0,.708-.708l-.929-.928L17.09,2.628A.994.994,0,0,0,16.163,2H5.837a.994.994,0,0,0-.927.628L3.074,7.219,1.146,9.146A.5.5,0,0,0,1,9.5V13a1,1,0,0,0,1,1v1a1,1,0,0,0,1,1H5a1,1,0,0,0,1-1V14H8.5a.5.5,0,0,0,0-1ZM5.839,3H16.162l1.6,4H4.239ZM5,15H3V14H5Z" transform="translate(-1 -2)"/><path d="M21.111,10.924c-.006-.006-.008-.015-.014-.021s-.015-.008-.021-.014A6.5,6.5,0,0,0,11.9,20.082l.009.014.014.009a6.5,6.5,0,0,0,9.193-9.181ZM16.5,10a5.472,5.472,0,0,1,3.517,1.276l-7.741,7.741A5.5,5.5,0,0,1,16.5,10Zm0,11a5.472,5.472,0,0,1-3.517-1.276l7.741-7.741A5.5,5.5,0,0,1,16.5,21Z" transform="translate(-1 -2)"/></svg>