<svg xmlns="http://www.w3.org/2000/svg" width="22" height="20" viewBox="0 0 22 20"><path d="M8.5,13H2V12H6a.5.5,0,0,0,0-1H2V9.708L3.707,8H18.293l.853.854a.5.5,0,0,0,.708-.708l-.929-.928L17.09,2.628A.994.994,0,0,0,16.163,2H5.837a.994.994,0,0,0-.927.628L3.074,7.219,1.292,9A1,1,0,0,0,1,9.707V13a1,1,0,0,0,1,1v1a1,1,0,0,0,1,1H5a1,1,0,0,0,1-1V14H8.5a.5.5,0,0,0,0-1ZM5.839,3H16.162l1.6,4H4.239ZM5,15H3V14H5Z" transform="translate(-1 -2)"/><path d="M16.5,9A6.5,6.5,0,1,0,23,15.5,6.508,6.508,0,0,0,16.5,9Zm0,12A5.5,5.5,0,1,1,22,15.5,5.507,5.507,0,0,1,16.5,21Z" transform="translate(-1 -2)"/><path d="M18.773,13.456l-2.9,3.873a.246.246,0,0,1-.164.1.263.263,0,0,1-.213-.07l-1.5-1.5a.5.5,0,1,0-.707.707l1.5,1.5a1.273,1.273,0,0,0,.131.114,1.246,1.246,0,0,0,.751.252,1.217,1.217,0,0,0,.179-.013,1.243,1.243,0,0,0,.824-.487l2.905-3.873a.5.5,0,1,0-.8-.6Z" transform="translate(-1 -2)"/></svg>