<svg xmlns="http://www.w3.org/2000/svg" width="23" height="24" viewBox="0 0 23 24"><path d="M12,5.5A2.75,2.75,0,1,0,9.25,2.75,2.752,2.752,0,0,0,12,5.5ZM12,1a1.75,1.75,0,1,1-1.75,1.75A1.752,1.752,0,0,1,12,1Z" transform="translate(-0.5)"/><path d="M7.5,10h9a.5.5,0,0,0,.484-.624,5.144,5.144,0,0,0-9.968,0A.5.5,0,0,0,7.5,10Zm3.476-3.368A4.148,4.148,0,0,1,15.8,9H8.2A4.143,4.143,0,0,1,10.976,6.632Z" transform="translate(-0.5)"/><path d="M12.5,13.5v-2a.5.5,0,0,0-1,0v2a.5.5,0,0,0,1,0Z" transform="translate(-0.5)"/><path d="M6.5,14a.5.5,0,0,0,.4-.2l1.5-2a.5.5,0,1,0-.8-.6l-1.5,2a.5.5,0,0,0,.1.7A.494.494,0,0,0,6.5,14Z" transform="translate(-0.5)"/><path d="M15.7,11.1a.5.5,0,0,0-.1.7l1.5,2a.5.5,0,0,0,.8-.6l-1.5-2A.5.5,0,0,0,15.7,11.1Z" transform="translate(-0.5)"/><path d="M9.236,18.35a2.85,2.85,0,1,0,2.85-2.85A2.853,2.853,0,0,0,9.236,18.35Zm2.85-1.85a1.85,1.85,0,1,1-1.85,1.85A1.839,1.839,0,0,1,12.086,16.5Z" transform="translate(-0.5)"/><path d="M4.694,21.2a2.85,2.85,0,1,0-2.85-2.85A2.853,2.853,0,0,0,4.694,21.2Zm0-4.7a1.85,1.85,0,1,1-1.85,1.85A1.852,1.852,0,0,1,4.694,16.5Z" transform="translate(-0.5)"/><path d="M16.464,18.347v0A2.849,2.849,0,0,0,19.312,21.2h0a2.852,2.852,0,1,0-2.85-2.854Zm1,0a1.85,1.85,0,1,1,3.7.006,1.851,1.851,0,0,1-1.85,1.848h0a1.852,1.852,0,0,1-1.848-1.851Z" transform="translate(-0.5)"/><path d="M23.39,23.187A5.189,5.189,0,0,0,16.1,22.4c-.139.113-.273.232-.4.357a5.353,5.353,0,0,0-3.7-1.5h0a5.355,5.355,0,0,0-3.7,1.5c-.127-.125-.26-.245-.4-.358a5.189,5.189,0,0,0-7.288.784A.5.5,0,0,0,1,24a.493.493,0,0,0,.389-.187,4.183,4.183,0,0,1,6.513,0A.5.5,0,0,0,8.287,24a.617.617,0,0,0,.388-.179,4.321,4.321,0,0,1,6.649,0,.5.5,0,0,0,.384.179.516.516,0,0,0,.39-.187,4.131,4.131,0,0,1,.631-.63,4.186,4.186,0,0,1,5.881.63.5.5,0,0,0,.78-.626Z" transform="translate(-0.5)"/></svg>