<svg xmlns="http://www.w3.org/2000/svg" width="24" height="19.953" viewBox="0 0 24 19.953"><path d="M23,9.977a1,1,0,0,0,1-1V7.805a1,1,0,0,0-.6-.916l-11-4.784a1.015,1.015,0,0,0-.8,0L.6,6.889a1,1,0,0,0-.6.916V8.977a1,1,0,0,0,1,1H2v11H.5a.5.5,0,0,0,0,1h23a.5.5,0,0,0,0-1H22v-11ZM1,7.806,12,3.022,23,7.805V8.977H1ZM19,20.977H5v-9H19Zm2,0H20v-9a1,1,0,0,0-1-1H5a1,1,0,0,0-1,1v9H3v-11H21Z" transform="translate(0 -2.023)"/><path d="M6.5,14.977h11a.5.5,0,0,0,0-1H6.5a.5.5,0,0,0,0,1Z" transform="translate(0 -2.023)"/><path d="M6.5,16.977h11a.5.5,0,0,0,0-1H6.5a.5.5,0,0,0,0,1Z" transform="translate(0 -2.023)"/><path d="M6.5,18.977h11a.5.5,0,0,0,0-1H6.5a.5.5,0,0,0,0,1Z" transform="translate(0 -2.023)"/></svg>