<svg xmlns="http://www.w3.org/2000/svg" width="20.327" height="24" viewBox="0 0 20.327 24"><path d="M21.958,11.9a.5.5,0,0,0-.774-.237,6,6,0,0,1-2.349,1.009,6.481,6.481,0,0,0-2.105.831,2.578,2.578,0,0,0-1.287,2.061,2.19,2.19,0,0,0,.747,1.58,23.1,23.1,0,0,0-3.24,4.349V12.975a6.5,6.5,0,1,0-1,0v7.43a14.4,14.4,0,0,0-3-3.26,2.007,2.007,0,0,0,.49-1.211,2.821,2.821,0,0,0-1.432-2.291,6.378,6.378,0,0,0-5.741.087.5.5,0,0,0-.116.8A5.46,5.46,0,0,1,3.384,16.5a5.957,5.957,0,0,0,1.057,1.8,2.513,2.513,0,0,0,1.81.908,1.865,1.865,0,0,0,.27-.019,2.214,2.214,0,0,0,1.61-1.333c.02-.013.034-.026.054-.039A11.491,11.491,0,0,1,11.95,22.58v.92a.427.427,0,0,0,.015.071.471.471,0,0,0,.022.113.569.569,0,0,0,.052.085.56.56,0,0,0,.051.076.553.553,0,0,0,.1.072.508.508,0,0,0,.053.038h.006a.463.463,0,0,0,.44-.025.452.452,0,0,0,.051-.034.5.5,0,0,0,.154-.177s.009-.007.011-.013a24.288,24.288,0,0,1,3.917-5.776,2.379,2.379,0,0,0,1.608,1.285,1.982,1.982,0,0,0,.37.034A3.277,3.277,0,0,0,21.1,18.071,6.924,6.924,0,0,0,21.958,11.9ZM7.293,17.29c-.176.377-.48.84-.923.907a1.446,1.446,0,0,1-1.192-.575h0A5.039,5.039,0,0,1,4.3,16.1a7.374,7.374,0,0,0-.972-1.757,5.355,5.355,0,0,1,4.176.156A1.893,1.893,0,0,1,8.441,15.9a1.046,1.046,0,0,1-.282.639c-.446-.325-.922-.648-1.451-.966a.5.5,0,1,0-.515.858c.425.255.811.515,1.179.775C7.347,17.234,7.31,17.254,7.293,17.29ZM6.95,6.5a5.5,5.5,0,1,1,5.5,5.5A5.506,5.506,0,0,1,6.95,6.5ZM20.321,17.442a2.07,2.07,0,0,1-1.7.791c-.412-.078-.76-.438-1.042-1.039a11.369,11.369,0,0,1,1.64-1.27.5.5,0,0,0-.529-.848,12.548,12.548,0,0,0-1.776,1.368,1.264,1.264,0,0,1-.467-.881,1.641,1.641,0,0,1,.842-1.23,5.6,5.6,0,0,1,1.8-.7,7.873,7.873,0,0,0,2.1-.784A5.889,5.889,0,0,1,20.321,17.442Z" transform="translate(-2)"/><path d="M12.95,10.5V10h.031a1.842,1.842,0,0,0,.686-3.551L11.6,5.623A.842.842,0,0,1,11.917,4H13.95a.5.5,0,0,0,0-1h-1V2.5a.5.5,0,0,0-1,0V3h-.033a1.842,1.842,0,0,0-.686,3.551l2.064.826A.842.842,0,0,1,12.981,9H10.95a.5.5,0,0,0,0,1h1v.5a.5.5,0,0,0,1,0Z" transform="translate(-2)"/></svg>