<svg xmlns="http://www.w3.org/2000/svg" width="24" height="24" viewBox="0 0 24 24"><path d="M23.905,23.207l-2.387-3.3L21.5,15.512c.045-1.891-2.241-3.828-4.258-5.537L17,9.769V1.5A1.5,1.5,0,0,0,15.5,0H1.5A1.5,1.5,0,0,0,0,1.5v18A1.5,1.5,0,0,0,1.5,21h12a.5.5,0,0,0,0-1H1.5a.5.5,0,0,1-.5-.5V1.5A.5.5,0,0,1,1.5,1h14a.5.5,0,0,1,.5.5V14.26a1.665,1.665,0,0,0-.938-.32,1.561,1.561,0,0,0-1.115,2.61l2.576,3.13V21c0,1.113,1.423,2.574,1.708,2.855a.5.5,0,0,0,.7-.71A4.846,4.846,0,0,1,17.523,21V19.5a.493.493,0,0,0-.114-.317L14.7,15.888a.562.562,0,0,1,.78-.807l2.69,2.768a.5.5,0,0,0,.717-.7l-1.918-1.972A.51.51,0,0,0,17,15V11.082c1.6,1.367,3.531,3.1,3.5,4.42l.019,4.566a.5.5,0,0,0,.094.291L23.1,23.793a.5.5,0,1,0,.81-.586Z"/><path d="M3,18a1,1,0,0,0,1,1h9.5a.5.5,0,0,0,0-1H10V14h3.5a.5.5,0,0,0,.5-.5c0-.007,0-.013,0-.019V12a1,1,0,0,0-1-1H4a1,1,0,0,0-1,1Zm1-4H6v4H4Zm5,4H7V14H9ZM7,13V12H9v1Zm6,0H10V12h3ZM6,12v1H4V12Z"/><path d="M9.5,5h4a.5.5,0,0,0,0-1h-4a.5.5,0,0,0,0,1Z"/><path d="M9.5,7H12a.5.5,0,0,0,0-1H9.5a.5.5,0,1,0,0,1Z"/><path d="M6.5,8h-3a.5.5,0,0,0,0,1H5v.5a.5.5,0,0,0,1,0V9h.5a1.5,1.5,0,0,0,0-3h-2a.5.5,0,0,1,0-1h3a.5.5,0,0,0,0-1H6V3.5a.5.5,0,0,0-1,0V4H4.5a1.5,1.5,0,0,0,0,3h2a.5.5,0,0,1,0,1Z"/></svg>