<svg xmlns="http://www.w3.org/2000/svg" width="19" height="24" viewBox="0 0 19 24"><path d="M12,0C6.584,0,2.5,4.3,2.5,10c0,7.173,8.832,13.634,9.207,13.905a.5.5,0,0,0,.586,0c.376-.271,9.207-6.732,9.207-13.9C21.5,4.3,17.416,0,12,0Zm0,22.873C10.472,21.689,3.5,15.961,3.5,10c0-5.131,3.654-9,8.5-9s8.5,3.869,8.5,9C20.5,15.961,13.527,21.689,12,22.873Z" transform="translate(-2.5)"/><path d="M17.492,10.5a.483.483,0,0,0-.093-.274,1.467,1.467,0,0,0-.058-.161l-.86-1.721-.349-2.09A1.494,1.494,0,0,0,14.653,5H9.347A1.5,1.5,0,0,0,7.868,6.254L7.519,8.343l-.86,1.721a1.572,1.572,0,0,0-.081.224.445.445,0,0,0-.019.051c-.013.05-.022.1-.03.151l0,.01v0a1.512,1.512,0,0,0-.027.233V11.5a1.5,1.5,0,0,0,1,1.408V14a.5.5,0,0,0,1,0V13h7v1a.5.5,0,0,0,1,0V12.908a1.5,1.5,0,0,0,1-1.408v-.764a1.634,1.634,0,0,0-.02-.173C17.482,10.541,17.492,10.522,17.492,10.5ZM9.347,6h5.306a.5.5,0,0,1,.493.418L15.41,8H8.59l.264-1.582A.5.5,0,0,1,9.347,6ZM16,12H8a.5.5,0,0,1-.5-.5V11h2a.5.5,0,0,0,0-1H7.809l.5-1H15.69l.5,1H14.5a.5.5,0,0,0,0,1h2v.5A.5.5,0,0,1,16,12Z" transform="translate(-2.5)"/></svg>