<svg xmlns="http://www.w3.org/2000/svg" width="23.996" height="24" viewBox="0 0 23.996 24"><path d="M12.5,23.031H8V9.531A1.5,1.5,0,0,0,7,8.123V4.856L8.7,4.1h0L15,1.3v3.73H12.5a.5.5,0,0,0,0,1H15v1H10.5a.5.5,0,1,0,0,1H15v1.5a.5.5,0,0,0,1,0V1.3a1,1,0,0,0-.636-.93A1,1,0,0,0,14.6.387L9,2.873V.531a.5.5,0,0,0-1,0V3.317l-1.7.757a.5.5,0,0,0-.3.457v3.5H1.5A1.5,1.5,0,0,0,0,9.531v14a.5.5,0,0,0,.5.5h12a.5.5,0,0,0,0-1Zm-11.5-9H2.5a.5.5,0,0,0,0-1H1v-1H4.5a.5.5,0,0,0,0-1H1v-1.5a.5.5,0,0,1,.5-.5h5a.5.5,0,0,1,.5.5v13.5H6v-2a1,1,0,0,0-1-1H3a1,1,0,0,0-1,1v2H1Zm4,9H3v-2H5Z" transform="translate(0 -0.031)"/><path d="M17.75,15.063A1.937,1.937,0,1,0,19.687,17,1.941,1.941,0,0,0,17.75,15.063Zm0,2.874A.937.937,0,1,1,18.687,17,.938.938,0,0,1,17.75,17.937Z" transform="translate(0 -0.031)"/><path d="M22.531,17.314a.465.465,0,0,1,0-.626l.989-1.065a1.783,1.783,0,0,0-1.7-2.953L20.406,13a.454.454,0,0,1-.533-.311l-.424-1.393a1.775,1.775,0,0,0-3.4,0l-.424,1.394A.455.455,0,0,1,15.1,13L13.68,12.67a1.769,1.769,0,0,0-1.609.434,1.786,1.786,0,0,0-.09,2.52l.988,1.062a.465.465,0,0,1,0,.626l-.989,1.065a1.783,1.783,0,0,0,1.7,2.953L15.094,21a.453.453,0,0,1,.533.311l.424,1.39a1.768,1.768,0,0,0,1.188,1.19,1.806,1.806,0,0,0,.513.076,1.778,1.778,0,0,0,1.7-1.264l.424-1.393a.451.451,0,0,1,.532-.31l1.415.327a1.784,1.784,0,0,0,1.7-2.954Zm.216,2.85a.783.783,0,0,1-.7.191l-1.413-.327a1.459,1.459,0,0,0-1.715,1l-.424,1.394a.774.774,0,0,1-1.484,0l-.424-1.391a1.457,1.457,0,0,0-1.391-1.033,1.514,1.514,0,0,0-.325.037l-1.409.327a.782.782,0,0,1-.745-1.3l.989-1.066a1.471,1.471,0,0,0,0-1.986l-.988-1.064a.784.784,0,0,1,.039-1.106.774.774,0,0,1,.7-.191l1.413.327a1.461,1.461,0,0,0,1.715-.995l.424-1.394a.777.777,0,0,1,.965-.52.775.775,0,0,1,.519.52h0l.424,1.392a1.461,1.461,0,0,0,1.716,1l1.409-.327a.783.783,0,0,1,.745,1.3L21.8,16.008a1.471,1.471,0,0,0,0,1.986l.988,1.064a.781.781,0,0,1-.039,1.106Z" transform="translate(0 -0.031)"/></svg>