<svg xmlns="http://www.w3.org/2000/svg" version="1.1" xmlns:xlink="http://www.w3.org/1999/xlink" xmlns:svgjs="http://svgjs.com/svgjs" viewBox="0 0 24 24" width="24" height="24"><g transform="matrix(1,0,0,1,0,0)"><path d="M23.5,23.5l-2.481-3.434L21,15.5c.042-1.778-2.581-3.863-4.5-5.5" fill="none" stroke="#000000" stroke-linecap="round" stroke-linejoin="round"></path><path d="M18.523,17.5l-2.69-2.768a1.061,1.061,0,0,0-1.5,1.5l2.69,3.268V21c0,.961,1.56,2.5,1.56,2.5" fill="none" stroke="#000000" stroke-linecap="round" stroke-linejoin="round"></path><path d="M13.5,20.5H1.5a1,1,0,0,1-1-1V1.5a1,1,0,0,1,1-1h14a1,1,0,0,1,1,1V15" fill="none" stroke="#000000" stroke-linecap="round" stroke-linejoin="round"></path><path d="M13.5,18.5H4a.5.5,0,0,1-.5-.5V12a.5.5,0,0,1,.5-.5h9a.5.5,0,0,1,.5.5v1.5" fill="none" stroke="#000000" stroke-linecap="round" stroke-linejoin="round"></path><path d="M3.504 13.5L13.504 13.5" fill="none" stroke="#000000" stroke-linecap="round" stroke-linejoin="round"></path><path d="M6.504 11.5L6.504 18.5" fill="none" stroke="#000000" stroke-linecap="round" stroke-linejoin="round"></path><path d="M9.504 11.5L9.504 18.5" fill="none" stroke="#000000" stroke-linecap="round" stroke-linejoin="round"></path><path d="M9.504 4.5L13.504 4.5" fill="none" stroke="#000000" stroke-linecap="round" stroke-linejoin="round"></path><path d="M9.504 6.5L12.004 6.5" fill="none" stroke="#000000" stroke-linecap="round" stroke-linejoin="round"></path><path d="M5.504 8.5L5.504 9.5" fill="none" stroke="#000000" stroke-linecap="round" stroke-linejoin="round"></path><path d="M5.504 3.5L5.504 4.5" fill="none" stroke="#000000" stroke-linecap="round" stroke-linejoin="round"></path><path d="M3.5,8.5h3a1,1,0,0,0,0-2h-2a1,1,0,1,1,0-2h3" fill="none" stroke="#000000" stroke-linecap="round" stroke-linejoin="round"></path></g></svg>