<svg xmlns="http://www.w3.org/2000/svg" version="1.1" xmlns:xlink="http://www.w3.org/1999/xlink" xmlns:svgjs="http://svgjs.com/svgjs" viewBox="0 0 24 24" width="24" height="24"><g transform="matrix(1,0,0,1,0,0)"><path d="M9.750 2.750 A2.250 2.250 0 1 0 14.250 2.750 A2.250 2.250 0 1 0 9.750 2.750 Z" fill="none" stroke="#000000" stroke-linecap="round" stroke-linejoin="round"></path><path d="M16.5,9.5a4.644,4.644,0,0,0-9,0Z" fill="none" stroke="#000000" stroke-linecap="round" stroke-linejoin="round"></path><path d="M12 13.5L12 11.5" fill="none" stroke="#000000" stroke-linecap="round" stroke-linejoin="round"></path><path d="M6.5 13.5L8 11.5" fill="none" stroke="#000000" stroke-linecap="round" stroke-linejoin="round"></path><path d="M17.5 13.5L16 11.5" fill="none" stroke="#000000" stroke-linecap="round" stroke-linejoin="round"></path><path d="M9.736 18.350 A2.350 2.350 0 1 0 14.436 18.350 A2.350 2.350 0 1 0 9.736 18.350 Z" fill="none" stroke="#000000" stroke-linecap="round" stroke-linejoin="round"></path><path d="M2.344 18.350 A2.350 2.350 0 1 0 7.044 18.350 A2.350 2.350 0 1 0 2.344 18.350 Z" fill="none" stroke="#000000" stroke-linecap="round" stroke-linejoin="round"></path><path d="M16.964 18.350 A2.350 2.350 0 1 0 21.664 18.350 A2.350 2.350 0 1 0 16.964 18.350 Z" fill="none" stroke="#000000" stroke-linecap="round" stroke-linejoin="round"></path><path d="M23,23.5a4.683,4.683,0,0,0-7.292,0A4.861,4.861,0,0,0,12,21.76" fill="none" stroke="#000000" stroke-linecap="round" stroke-linejoin="round"></path><path d="M1,23.5a4.683,4.683,0,0,1,7.292,0A4.861,4.861,0,0,1,12,21.76" fill="none" stroke="#000000" stroke-linecap="round" stroke-linejoin="round"></path></g></svg>