<svg xmlns="http://www.w3.org/2000/svg" version="1.1" xmlns:xlink="http://www.w3.org/1999/xlink" xmlns:svgjs="http://svgjs.com/svgjs" viewBox="0 0 24 24" width="24" height="24"><g transform="matrix(1,0,0,1,0,0)"><path d="M12.45 12.5L12.45 23.5" fill="none" stroke="#000000" stroke-linecap="round" stroke-linejoin="round"></path><path d="M12.45,23.5s2.5-5.5,6.5-8" fill="none" stroke="#000000" stroke-linecap="round" stroke-linejoin="round"></path><path d="M12.45,22.5s-1-3.5-6-6.5" fill="none" stroke="#000000" stroke-linecap="round" stroke-linejoin="round"></path><path d="M17.008,13.917c-1.117.746-1.693,2.106,0,3.249.929,2.321,2.655,1.7,3.677.62a6.4,6.4,0,0,0,.8-5.726C19.855,13.292,18.4,12.989,17.008,13.917Z" fill="none" stroke="#000000" stroke-linecap="round" stroke-linejoin="round"></path><path d="M4.809,17.96c.831.906,2.142,1.235,2.937-.457,1.968-1.165,1.161-2.639.044-3.411a5.855,5.855,0,0,0-5.29.081C3.843,15.475,3.774,16.832,4.809,17.96Z" fill="none" stroke="#000000" stroke-linecap="round" stroke-linejoin="round"></path><path d="M13.95,3.5H11.917a1.342,1.342,0,0,0-.5,2.587l2.064.826a1.342,1.342,0,0,1-.5,2.587H10.95" fill="none" stroke="#000000" stroke-linecap="round" stroke-linejoin="round"></path><path d="M12.45 10.5L12.45 9.5" fill="none" stroke="#000000" stroke-linecap="round" stroke-linejoin="round"></path><path d="M12.45 3.5L12.45 2.5" fill="none" stroke="#000000" stroke-linecap="round" stroke-linejoin="round"></path><path d="M6.450 6.500 A6.000 6.000 0 1 0 18.450 6.500 A6.000 6.000 0 1 0 6.450 6.500 Z" fill="none" stroke="#000000" stroke-linecap="round" stroke-linejoin="round"></path></g></svg>