<svg xmlns="http://www.w3.org/2000/svg" version="1.1" xmlns:xlink="http://www.w3.org/1999/xlink" xmlns:svgjs="http://svgjs.com/svgjs" viewBox="0 0 24 24" width="24" height="24"><g transform="matrix(1,0,0,1,0,0)"><path d="M5.5,13.5V15a.5.5,0,0,1-.5.5H3a.5.5,0,0,1-.5-.5V13.5" fill="none" stroke="#000000" stroke-linecap="round" stroke-linejoin="round"></path><path d="M19.5,8.5l-1-1H3.5L1.646,9.354a.5.5,0,0,0-.146.353V13a.5.5,0,0,0,.5.5H8.5" fill="none" stroke="#000000" stroke-linecap="round" stroke-linejoin="round"></path><path d="M18.5,7.5,16.626,2.814a.5.5,0,0,0-.465-.314H5.839a.5.5,0,0,0-.465.314L3.5,7.5" fill="none" stroke="#000000" stroke-linecap="round" stroke-linejoin="round"></path><path d="M1.5 11.5L6 11.5" fill="none" stroke="#000000" stroke-linecap="round" stroke-linejoin="round"></path><path d="M10.500 15.500 A6.000 6.000 0 1 0 22.500 15.500 A6.000 6.000 0 1 0 10.500 15.500 Z" fill="none" stroke="#000000" stroke-linecap="round" stroke-linejoin="round"></path><path d="M19.174,13.756l-2.905,3.873a.752.752,0,0,1-1.131.081l-1.5-1.5" fill="none" stroke="#000000" stroke-linecap="round" stroke-linejoin="round"></path></g></svg>