<svg xmlns="http://www.w3.org/2000/svg" version="1.1" xmlns:xlink="http://www.w3.org/1999/xlink" xmlns:svgjs="http://svgjs.com/svgjs" viewBox="0 0 24 24" width="24" height="24"><g transform="matrix(1,0,0,1,0,0)"><path d="M0.5 21.477L23.5 21.477" fill="none" stroke="#000000" stroke-linecap="round" stroke-linejoin="round"></path><path d="M2.5 9.477L2.5 21.477" fill="none" stroke="#000000" stroke-linecap="round" stroke-linejoin="round"></path><path d="M21.5 21.477L21.5 9.477" fill="none" stroke="#000000" stroke-linecap="round" stroke-linejoin="round"></path><path d="M23.5,7.805a.5.5,0,0,0-.3-.458l-11-4.783a.5.5,0,0,0-.4,0L.8,7.347a.5.5,0,0,0-.3.458V8.977a.5.5,0,0,0,.5.5H23a.5.5,0,0,0,.5-.5Z" fill="none" stroke="#000000" stroke-linecap="round" stroke-linejoin="round"></path><path d="M5,21.477a.5.5,0,0,1-.5-.5v-9a.5.5,0,0,1,.5-.5H19a.5.5,0,0,1,.5.5v9a.5.5,0,0,1-.5.5" fill="none" stroke="#000000" stroke-linecap="round" stroke-linejoin="round"></path><path d="M6.5 14.477L17.5 14.477" fill="none" stroke="#000000" stroke-linecap="round" stroke-linejoin="round"></path><path d="M6.5 16.477L17.5 16.477" fill="none" stroke="#000000" stroke-linecap="round" stroke-linejoin="round"></path><path d="M6.5 18.477L17.5 18.477" fill="none" stroke="#000000" stroke-linecap="round" stroke-linejoin="round"></path></g></svg>