<svg xmlns="http://www.w3.org/2000/svg" version="1.1" xmlns:xlink="http://www.w3.org/1999/xlink" xmlns:svgjs="http://svgjs.com/svgjs" viewBox="0 0 24 24" width="24" height="24"><g transform="matrix(1,0,0,1,0,0)"><path d="M7.5,23.531H.5v-14a1,1,0,0,1,1-1h5a1,1,0,0,1,1,1Z" fill="none" stroke="#000000" stroke-linecap="round" stroke-linejoin="round"></path><path d="M6.5,8.531v-4L14.8.844a.5.5,0,0,1,.7.457v8.23" fill="none" stroke="#000000" stroke-linecap="round" stroke-linejoin="round"></path><path d="M5.5,23.531v-2.5a.5.5,0,0,0-.5-.5H3a.5.5,0,0,0-.5.5v2.5" fill="none" stroke="#000000" stroke-linecap="round" stroke-linejoin="round"></path><path d="M0.5 11.531L4.5 11.531" fill="none" stroke="#000000" stroke-linecap="round" stroke-linejoin="round"></path><path d="M12.5 5.531L15.5 5.531" fill="none" stroke="#000000" stroke-linecap="round" stroke-linejoin="round"></path><path d="M10.5 7.531L15.5 7.531" fill="none" stroke="#000000" stroke-linecap="round" stroke-linejoin="round"></path><path d="M0.5 13.531L2.5 13.531" fill="none" stroke="#000000" stroke-linecap="round" stroke-linejoin="round"></path><path d="M8.5 3.642L8.5 0.531" fill="none" stroke="#000000" stroke-linecap="round" stroke-linejoin="round"></path><path d="M7.5 23.531L12.5 23.531" fill="none" stroke="#000000" stroke-linecap="round" stroke-linejoin="round"></path><path d="M16.313 17.000 A1.437 1.437 0 1 0 19.187 17.000 A1.437 1.437 0 1 0 16.313 17.000 Z" fill="none" stroke="#000000" stroke-linecap="round" stroke-linejoin="round"></path><path d="M18.971,11.439l.424,1.392a.951.951,0,0,0,1.124.653l1.412-.327a1.283,1.283,0,0,1,1.221,2.126l-.988,1.064a.962.962,0,0,0,0,1.306l.988,1.064a1.283,1.283,0,0,1-1.221,2.126l-1.412-.327a.951.951,0,0,0-1.124.653l-.424,1.392a1.275,1.275,0,0,1-2.442,0l-.424-1.392a.951.951,0,0,0-1.124-.653l-1.412.327a1.283,1.283,0,0,1-1.221-2.126l.988-1.064a.962.962,0,0,0,0-1.306l-.988-1.064a1.283,1.283,0,0,1,1.221-2.126l1.412.327a.951.951,0,0,0,1.124-.653l.424-1.392A1.275,1.275,0,0,1,18.971,11.439Z" fill="none" stroke="#000000" stroke-linecap="round" stroke-linejoin="round"></path></g></svg>