<svg xmlns="http://www.w3.org/2000/svg" width="24" height="24" viewBox="0 0 24 24"><path d="M12,0A11.99,11.99,0,0,0,3.6,20.557a.453.453,0,0,0,.086.078A11.994,11.994,0,1,0,12,0Zm0,1a10.986,10.986,0,0,1,7.937,18.6A26.034,26.034,0,0,0,14.8,17.4a.793.793,0,0,1-.324-.552,1.988,1.988,0,0,1,.192-1.532c.876-.962,1.73-2.15,1.728-5.058a4.312,4.312,0,0,0-4.385-4.711,4.535,4.535,0,0,0-.521.017A4.31,4.31,0,0,0,7.6,10.214c0,2.664.662,3.928,1.73,5.1a1.98,1.98,0,0,1,.192,1.531.853.853,0,0,1-.295.543A26.138,26.138,0,0,0,4.063,19.6,10.986,10.986,0,0,1,12,1ZM4.825,20.32a25.268,25.268,0,0,1,4.72-1.982,1.658,1.658,0,0,0,.949-1.253,2.9,2.9,0,0,0-.424-2.44C9.3,13.792,8.6,12.812,8.6,10.167A3.312,3.312,0,0,1,11.587,6.56a3.606,3.606,0,0,1,.427-.013,3.216,3.216,0,0,1,2.368.905,3.3,3.3,0,0,1,1.033,2.317,3.763,3.763,0,0,1-.015.445c0,2.6-.7,3.577-1.47,4.43a2.9,2.9,0,0,0-.424,2.441,1.661,1.661,0,0,0,.977,1.263,25.143,25.143,0,0,1,4.692,1.972,10.945,10.945,0,0,1-14.35,0Z"/></svg>