<svg xmlns="http://www.w3.org/2000/svg" width="24" height="23" viewBox="0 0 24 23"><path d="M5.5,1.5H8.9a1.248,1.248,0,0,1,1.12.712A2.244,2.244,0,0,0,12.044,3.5H18.5a.5.5,0,0,0,0-1H12.044a1.246,1.246,0,0,1-1.122-.713A2.251,2.251,0,0,0,8.9.5H5.5a.5.5,0,0,0,0,1Z" transform="translate(0 -0.5)"/><path d="M23.99,15.951a.267.267,0,0,0,0-.049l-.839-4.2a1.506,1.506,0,0,0-1.469-1.2H21v-5a1,1,0,0,0-1-1H11.044a1.246,1.246,0,0,1-1.122-.713A2.251,2.251,0,0,0,7.9,2.5H4a1,1,0,0,0-1,1v7H2.319a1.5,1.5,0,0,0-1.47,1.2L.01,15.9a.267.267,0,0,0,0,.049A.426.426,0,0,0,0,16v6a1.5,1.5,0,0,0,1.5,1.5h21A1.5,1.5,0,0,0,24,22V16A.426.426,0,0,0,23.99,15.951ZM1.829,11.9a.5.5,0,0,1,.49-.4H3V14a.5.5,0,0,0,1,0V3.5H7.9a1.248,1.248,0,0,1,1.12.712A2.244,2.244,0,0,0,11.044,5.5H20V14a.5.5,0,0,0,1,0V11.5h.681a.5.5,0,0,1,.49.4l.719,3.6H18.5a2.007,2.007,0,0,0-2,2.023,1.058,1.058,0,0,1-1.058.977h-6.9A.977.977,0,0,1,7.5,17.554a1.992,1.992,0,0,0-.548-1.43A2.019,2.019,0,0,0,5.5,15.5H1.11ZM23,22a.5.5,0,0,1-.5.5H1.5A.5.5,0,0,1,1,22V16.5H5.527a.992.992,0,0,1,.7.311,1.017,1.017,0,0,1,.274.745A2,2,0,0,0,8.558,19.5h6.869a2.03,2.03,0,0,0,2.072-2,1,1,0,0,1,1-1H23Z" transform="translate(0 -0.5)"/><path d="M8,15.5h8a.5.5,0,0,0,.359-.152.5.5,0,0,0,.141-.365,4.033,4.033,0,0,0-.4-1.618c-.314-.626-1.235-.965-2.51-1.434l-.23-.084a2.469,2.469,0,0,1-.033-.432,2.984,2.984,0,0,0,.8-2.29,1.792,1.792,0,0,0,0-.3,2.131,2.131,0,0,0-2.276-1.977A2.107,2.107,0,0,0,9.875,9.039a2.974,2.974,0,0,0,.75,2.308,1.123,1.123,0,0,1,.014.5l-.23.085c-1.275.468-2.2.807-2.511,1.44a4.006,4.006,0,0,0-.4,1.611A.5.5,0,0,0,8,15.5Zm.8-1.688a5.542,5.542,0,0,1,1.959-.942l.323-.119a.873.873,0,0,0,.533-.672,1.709,1.709,0,0,0-.2-1.342,2.147,2.147,0,0,1-.537-1.685,1.133,1.133,0,0,1,1.05-1.209A1.144,1.144,0,0,1,13.13,8.9c0,.05,0,.1,0,.239a2.068,2.068,0,0,1-.54,1.6,1.711,1.711,0,0,0-.2,1.337.872.872,0,0,0,.534.674l.322.119a5.625,5.625,0,0,1,1.957.936,2.947,2.947,0,0,1,.236.694H8.562A2.985,2.985,0,0,1,8.8,13.812Z" transform="translate(0 -0.5)"/></svg>